<svg fill="#000000" xmlns="http://www.w3.org/2000/svg"  viewBox="0 0 16 16" width="32px" height="32px"><path d="M 7.09375 1 C 6.285156 1.03125 4.570313 1.539063 4.21875 1.898438 C 4.085938 2.035156 4.039063 2.199219 4.078125 2.34375 C 4.140625 2.476563 6.84375 6.6875 6.84375 6.6875 C 7.246094 7.332031 7.570313 7.230469 7.679688 7.199219 C 7.785156 7.167969 8.109375 7.070313 8.070313 6.320313 C 8.035156 5.441406 7.769531 1.527344 7.734375 1.347656 C 7.691406 1.183594 7.5625 1.066406 7.375 1.023438 C 7.304688 1.003906 7.207031 0.996094 7.09375 1 Z M 11.179688 4.835938 C 11.097656 4.839844 11.023438 4.863281 10.953125 4.910156 C 10.867188 4.964844 10.800781 5.050781 9.605469 6.671875 C 9.605469 6.671875 9.0625 7.40625 9.054688 7.414063 C 8.914063 7.582031 8.914063 7.828125 9.050781 8.039063 C 9.195313 8.257813 9.4375 8.367188 9.664063 8.304688 C 9.664063 8.304688 9.652344 8.320313 9.648438 8.320313 C 9.761719 8.28125 9.960938 8.234375 10.320313 8.148438 C 12.558594 7.613281 12.644531 7.585938 12.734375 7.527344 C 12.867188 7.4375 12.933594 7.285156 12.921875 7.101563 C 12.921875 7.09375 12.925781 7.089844 12.921875 7.082031 C 12.867188 6.539063 11.902344 5.121094 11.425781 4.890625 C 11.34375 4.851563 11.261719 4.832031 11.179688 4.835938 Z M 3.664063 7.023438 C 3.5 7.019531 3.355469 7.101563 3.253906 7.257813 C 3.042969 7.597656 2.953125 8.664063 3.023438 9.367188 C 3.050781 9.601563 3.09375 9.796875 3.15625 9.914063 C 3.242188 10.074219 3.386719 10.171875 3.546875 10.175781 C 3.652344 10.179688 3.71875 10.164063 5.6875 9.535156 C 5.6875 9.535156 6.5625 9.261719 6.566406 9.257813 C 6.785156 9.203125 6.929688 9.003906 6.945313 8.75 C 6.960938 8.488281 6.824219 8.257813 6.601563 8.175781 C 6.601563 8.175781 5.984375 7.929688 5.984375 7.929688 C 3.867188 7.0625 3.769531 7.027344 3.664063 7.023438 Z M 9.683594 9.414063 C 9.519531 9.410156 9.355469 9.488281 9.234375 9.632813 C 9.070313 9.835938 9.042969 10.101563 9.179688 10.300781 L 9.523438 10.859375 C 10.695313 12.742188 10.78125 12.875 10.867188 12.941406 C 10.996094 13.042969 11.160156 13.058594 11.332031 12.988281 C 11.832031 12.792969 12.917969 11.425781 12.996094 10.902344 C 13.019531 10.714844 12.964844 10.558594 12.835938 10.457031 C 12.75 10.398438 12.6875 10.375 10.71875 9.734375 C 10.71875 9.734375 9.855469 9.449219 9.84375 9.445313 C 9.792969 9.421875 9.738281 9.414063 9.683594 9.414063 Z M 7.484375 10.015625 C 7.300781 10 7.125 10.066406 7.015625 10.203125 C 7.015625 10.203125 6.582031 10.714844 6.582031 10.714844 C 5.097656 12.4375 5.039063 12.515625 5 12.621094 C 4.980469 12.679688 4.96875 12.746094 4.976563 12.808594 C 4.988281 12.902344 5.03125 12.992188 5.101563 13.074219 C 5.445313 13.480469 7.089844 14.078125 7.617188 13.988281 C 7.800781 13.957031 7.933594 13.855469 7.992188 13.703125 C 8.023438 13.605469 8.027344 13.539063 8.035156 11.488281 C 8.035156 11.488281 8.039063 10.582031 8.039063 10.574219 C 8.054688 10.351563 7.910156 10.148438 7.671875 10.058594 C 7.609375 10.035156 7.546875 10.019531 7.484375 10.015625 Z"/></svg>